<?xml version="1.0" standalone="no"?>
<!DOCTYPE svg PUBLIC "-//W3C//DTD SVG 20010904//EN"
 "http://www.w3.org/TR/2001/REC-SVG-20010904/DTD/svg10.dtd">
<svg version="1.0" xmlns="http://www.w3.org/2000/svg"
 width="260.000000pt" height="260.000000pt" viewBox="0 0 260.000000 260.000000"
 preserveAspectRatio="xMidYMid meet">
<metadata>
Created by potrace 1.11, written by Peter Selinger 2001-2013
</metadata>
<g transform="translate(0.000000,260.000000) scale(0.100000,-0.100000)"
fill="#000000" stroke="none">
<path d="M1095 2575 c-49 -8 -138 -29 -196 -48 -501 -165 -843 -596 -891
-1122 -22 -241 21 -465 132 -690 158 -322 427 -552 770 -659 150 -47 215 -56
390 -56 175 0 240 9 390 56 343 107 612 337 770 659 73 148 107 261 128 429
34 274 -28 574 -168 806 -279 464 -787 704 -1325 625z m70 -1062 c66 -216 122
-393 125 -393 3 0 43 123 89 273 47 149 102 327 123 395 l39 122 132 0 133 0
72 -512 c40 -282 72 -521 72 -530 0 -16 -14 -18 -145 -18 -80 0 -145 3 -146 8
-6 91 -86 744 -91 737 -3 -5 -47 -165 -98 -355 -51 -190 -96 -355 -101 -367
-8 -22 -13 -23 -138 -23 l-129 0 -15 48 c-117 395 -223 720 -228 705 -4 -10
-24 -180 -44 -378 -20 -198 -39 -363 -41 -367 -7 -10 -174 -10 -174 0 0 12
171 1026 176 1040 3 10 35 12 136 10 l133 -3 120 -392z"/>
</g>
</svg>
